<svg width="20" height="23" viewBox="0 0 20 23" fill="none" xmlns="http://www.w3.org/2000/svg">
<g clip-path="url(#clip0_6027_16)">
<path d="M13.8286 1.91711H5.69414C3.44786 1.91711 1.62689 4.06297 1.62689 6.71001V16.2958C1.62689 18.9429 3.44786 21.0887 5.69414 21.0887H13.8286C16.0749 21.0887 17.8959 18.9429 17.8959 16.2958V6.71001C17.8959 4.06297 16.0749 1.91711 13.8286 1.91711Z" stroke="white" stroke-width="2" stroke-linecap="round" stroke-linejoin="round"/>
<path d="M13.0152 10.8991C13.1156 11.6969 12.9999 12.5116 12.6847 13.2275C12.3695 13.9434 11.8708 14.5239 11.2595 14.8865C10.6481 15.2491 9.95536 15.3753 9.27965 15.2471C8.60395 15.119 7.97974 14.7431 7.4958 14.1728C7.01187 13.6025 6.69284 12.8669 6.58411 12.0707C6.47538 11.2744 6.58248 10.458 6.89018 9.73765C7.19788 9.01726 7.6905 8.42954 8.29798 8.05809C8.90547 7.68664 9.59687 7.55038 10.2739 7.66868C10.9644 7.78935 11.6037 8.16854 12.0974 8.75025C12.591 9.33195 12.9128 10.0853 13.0152 10.8991Z" stroke="white" stroke-width="2" stroke-linecap="round" stroke-linejoin="round"/>
<path d="M14.2354 6.23071H14.2435" stroke="white" stroke-width="2" stroke-linecap="round" stroke-linejoin="round"/>
</g>
<defs>
<clipPath id="clip0_6027_16">
<rect width="19.5228" height="23.0059" fill="white"/>
</clipPath>
</defs>
</svg>
