<svg width="20" height="23" viewBox="0 0 20 23" fill="none" xmlns="http://www.w3.org/2000/svg">
<g clip-path="url(#clip0_6027_14)">
<path d="M18.7093 2.87573C17.9304 3.52323 17.0679 4.01846 16.1551 4.34236C15.6652 3.67855 15.0141 3.20806 14.2899 2.99452C13.5657 2.78098 12.8033 2.8347 12.1058 3.1484C11.4083 3.4621 10.8095 4.02066 10.3902 4.74852C9.97087 5.47639 9.75138 6.33844 9.76138 7.2181V8.17667C8.33186 8.22036 6.91535 7.84674 5.63802 7.08911C4.36069 6.33148 3.26219 5.21336 2.44034 3.83431C2.44034 3.83431 -0.813452 12.4615 6.50759 16.2958C4.83231 17.6359 2.83662 18.3078 0.813446 18.213C8.13449 23.0059 17.0824 18.213 17.0824 7.18934C17.0817 6.92233 17.0599 6.65598 17.0173 6.39372C17.8476 5.4289 18.4334 4.21075 18.7093 2.87573V2.87573Z" stroke="white" stroke-width="2" stroke-linecap="round" stroke-linejoin="round"/>
</g>
<defs>
<clipPath id="clip0_6027_14">
<rect width="19.5228" height="23.0059" fill="white"/>
</clipPath>
</defs>
</svg>
